<svg id="Layer_1" data-name="Layer 1" xmlns="http://www.w3.org/2000/svg" viewBox="0 0 78.7 129.6"><defs><style>.cls-1{fill:#fff;}</style></defs><title>Artboard 1</title><path class="cls-1" d="M.77,60.25a6,6,0,0,1,3.28-1.7c4.57-1.11,9.45-1.11,13.7-3.1,4.59-2.17,7.9-6.47,9.88-11.14s2.81-9.74,3.61-14.75l2.73-17c.7-4.37,1.69-9.23,5.33-11.75A3.28,3.28,0,0,1,42.35.17a3.56,3.56,0,0,1,1.22,1c3.68,4.39,4.44,10.45,5,16.14l2.24,20.94c.27,2.61.6,5.34,2.1,7.5a13.49,13.49,0,0,0,4.89,3.88,44,44,0,0,0,15.73,4.85c2,.22,4.44.64,5,2.55.64,2.1-1.62,3.91-3.66,4.73-4.78,1.92-10.13,2.4-14.59,5-4.94,2.86-8.2,8-10,13.41S48,91.31,47.26,97A281.1,281.1,0,0,1,42,126.49c-.35,1.52-1.35,3.46-2.86,3.06a2.83,2.83,0,0,1-1.52-1.43c-4.58-7.7-3.46-17.31-3.68-26.26-.18-7.53-1.42-15-2.65-22.42a13.9,13.9,0,0,0-1.56-5.15,10.48,10.48,0,0,0-5.56-4C21.38,69.3-4.76,66.92.77,60.25Z"/></svg>